<?xml version="1.0" encoding="UTF-8" standalone="no"?>
<svg
   class="icon icon-tabler icon-tabler-settings-filled"
   width="24"
   height="24"
   viewBox="0 0 24 24"
   stroke-width="2"
   stroke="currentColor"
   fill="none"
   stroke-linecap="round"
   stroke-linejoin="round"
   version="1.1"
   id="svg2"
   sodipodi:docname="settings-filled.svg"
   inkscape:version="1.3 (0e150ed, 2023-07-21)"
   xmlns:inkscape="http://www.inkscape.org/namespaces/inkscape"
   xmlns:sodipodi="http://sodipodi.sourceforge.net/DTD/sodipodi-0.dtd"
   xmlns="http://www.w3.org/2000/svg"
   xmlns:svg="http://www.w3.org/2000/svg">
  <defs
     id="defs2" />
  <sodipodi:namedview
     id="namedview2"
     pagecolor="#505050"
     bordercolor="#eeeeee"
     borderopacity="1"
     inkscape:showpageshadow="0"
     inkscape:pageopacity="0"
     inkscape:pagecheckerboard="0"
     inkscape:deskcolor="#505050"
     showgrid="false"
     inkscape:zoom="33.208333"
     inkscape:cx="12"
     inkscape:cy="12"
     inkscape:window-width="1920"
     inkscape:window-height="1001"
     inkscape:window-x="0"
     inkscape:window-y="0"
     inkscape:window-maximized="1"
     inkscape:current-layer="svg2" />
  <path
     stroke="none"
     d="M0 0h24v24H0z"
     fill="none"
     id="path1" />
  <path
     d="M14.647 4.081a.724 .724 0 0 0 1.08 .448c2.439 -1.485 5.23 1.305 3.745 3.744a.724 .724 0 0 0 .447 1.08c2.775 .673 2.775 4.62 0 5.294a.724 .724 0 0 0 -.448 1.08c1.485 2.439 -1.305 5.23 -3.744 3.745a.724 .724 0 0 0 -1.08 .447c-.673 2.775 -4.62 2.775 -5.294 0a.724 .724 0 0 0 -1.08 -.448c-2.439 1.485 -5.23 -1.305 -3.745 -3.744a.724 .724 0 0 0 -.447 -1.08c-2.775 -.673 -2.775 -4.62 0 -5.294a.724 .724 0 0 0 .448 -1.08c-1.485 -2.439 1.305 -5.23 3.744 -3.745a.722 .722 0 0 0 1.08 -.447c.673 -2.775 4.62 -2.775 5.294 0zm-2.647 4.919a3 3 0 1 0 0 6a3 3 0 0 0 0 -6z"
     stroke-width="0"
     fill="currentColor"
     id="path2"
     style="fill:#ffffff" />
</svg>
