<?xml version="1.0" encoding="UTF-8" standalone="no"?>
<svg
   class="icon icon-tabler icon-tabler-social"
   width="24"
   height="24"
   viewBox="0 0 24 24"
   stroke-width="2"
   stroke="currentColor"
   fill="none"
   stroke-linecap="round"
   stroke-linejoin="round"
   version="1.1"
   id="svg8"
   sodipodi:docname="social.svg"
   inkscape:version="1.3 (0e150ed, 2023-07-21)"
   xmlns:inkscape="http://www.inkscape.org/namespaces/inkscape"
   xmlns:sodipodi="http://sodipodi.sourceforge.net/DTD/sodipodi-0.dtd"
   xmlns="http://www.w3.org/2000/svg"
   xmlns:svg="http://www.w3.org/2000/svg">
  <defs
     id="defs8" />
  <sodipodi:namedview
     id="namedview8"
     pagecolor="#505050"
     bordercolor="#eeeeee"
     borderopacity="1"
     inkscape:showpageshadow="0"
     inkscape:pageopacity="0"
     inkscape:pagecheckerboard="0"
     inkscape:deskcolor="#505050"
     showgrid="false"
     inkscape:zoom="33.208333"
     inkscape:cx="12"
     inkscape:cy="11.969887"
     inkscape:window-width="1920"
     inkscape:window-height="1001"
     inkscape:window-x="0"
     inkscape:window-y="0"
     inkscape:window-maximized="1"
     inkscape:current-layer="svg8" />
  <path
     stroke="none"
     d="M0 0h24v24H0z"
     fill="none"
     id="path1" />
  <path
     d="M12 5m-2 0a2 2 0 1 0 4 0a2 2 0 1 0 -4 0"
     id="path2"
     style="stroke:#000000" />
  <path
     d="M5 19m-2 0a2 2 0 1 0 4 0a2 2 0 1 0 -4 0"
     id="path3"
     style="stroke:#000000" />
  <path
     d="M19 19m-2 0a2 2 0 1 0 4 0a2 2 0 1 0 -4 0"
     id="path4"
     style="stroke:#000000" />
  <path
     d="M12 14m-3 0a3 3 0 1 0 6 0a3 3 0 1 0 -6 0"
     id="path5"
     style="stroke:#000000" />
  <path
     d="M12 7l0 4"
     id="path6"
     style="stroke:#000000" />
  <path
     d="M6.7 17.8l2.8 -2"
     id="path7"
     style="stroke:#000000" />
  <path
     d="M17.3 17.8l-2.8 -2"
     id="path8"
     style="stroke:#000000" />
</svg>
