<?xml version="1.0" encoding="UTF-8" standalone="no"?>
<svg
   class="icon icon-tabler icon-tabler-users-group"
   width="24"
   height="24"
   viewBox="0 0 24 24"
   stroke-width="2"
   stroke="currentColor"
   fill="none"
   stroke-linecap="round"
   stroke-linejoin="round"
   version="1.1"
   id="svg7"
   sodipodi:docname="users-group.svg"
   inkscape:version="1.3 (0e150ed, 2023-07-21)"
   xmlns:inkscape="http://www.inkscape.org/namespaces/inkscape"
   xmlns:sodipodi="http://sodipodi.sourceforge.net/DTD/sodipodi-0.dtd"
   xmlns="http://www.w3.org/2000/svg"
   xmlns:svg="http://www.w3.org/2000/svg">
  <defs
     id="defs7" />
  <sodipodi:namedview
     id="namedview7"
     pagecolor="#505050"
     bordercolor="#eeeeee"
     borderopacity="1"
     inkscape:showpageshadow="0"
     inkscape:pageopacity="0"
     inkscape:pagecheckerboard="0"
     inkscape:deskcolor="#505050"
     inkscape:zoom="33.208333"
     inkscape:cx="12"
     inkscape:cy="12"
     inkscape:window-width="1920"
     inkscape:window-height="1001"
     inkscape:window-x="0"
     inkscape:window-y="0"
     inkscape:window-maximized="1"
     inkscape:current-layer="svg7" />
  <path
     stroke="none"
     d="M0 0h24v24H0z"
     fill="none"
     id="path1" />
  <path
     d="M10 13a2 2 0 1 0 4 0a2 2 0 0 0 -4 0"
     id="path2"
     style="stroke:#ffffff" />
  <path
     d="M8 21v-1a2 2 0 0 1 2 -2h4a2 2 0 0 1 2 2v1"
     id="path3"
     style="stroke:#ffffff" />
  <path
     d="M15 5a2 2 0 1 0 4 0a2 2 0 0 0 -4 0"
     id="path4"
     style="stroke:#ffffff" />
  <path
     d="M17 10h2a2 2 0 0 1 2 2v1"
     id="path5"
     style="stroke:#ffffff" />
  <path
     d="M5 5a2 2 0 1 0 4 0a2 2 0 0 0 -4 0"
     id="path6"
     style="stroke:#ffffff" />
  <path
     d="M3 13v-1a2 2 0 0 1 2 -2h2"
     id="path7"
     style="stroke:#ffffff" />
</svg>
